<?xml version="1.0" standalone="no"?><!DOCTYPE svg PUBLIC "-//W3C//DTD SVG 1.1//EN" "http://www.w3.org/Graphics/SVG/1.1/DTD/svg11.dtd"><svg t="1755498747345" class="icon" viewBox="0 0 1024 1024" version="1.1" xmlns="http://www.w3.org/2000/svg" p-id="1535" xmlns:xlink="http://www.w3.org/1999/xlink" width="200" height="200"><path d="M887.044 267.194H135.36c-39.56 0-71.631 32.07-71.631 71.632v463.536c0 39.561 32.07 71.632 71.631 71.632h751.685c39.561 0 71.632-32.07 71.632-71.632V338.826c0-39.562-32.07-71.632-71.632-71.632z m12.733 100.255v406.715c0 0.039-0.003 0.077-0.003 0.116L683.68 580.338l216.097-212.89zM383.103 620.616c70.996 50.776 191.38 54.63 258.105 0.748L857.07 815.095H166.406l216.697-194.48z m471.412-294.523l-218.34 215.055c-77.786 80.175-179.434 75.4-252.906-1.627L171.962 326.093h682.553z m-731.889 40.932c0-2.023 0.153-4.01 0.436-5.953l216.892 219.127-217.3 195.023c-0.01-0.353-0.027-0.704-0.027-1.058V367.025z" p-id="1536"></path></svg>